<svg id="Capa_1" data-name="Capa 1" xmlns="http://www.w3.org/2000/svg" viewBox="0 0 496.5 492.65"><defs><style>.cls-1,.cls-2{fill:none;stroke:#fff;stroke-miterlimit:10;}.cls-1{stroke-width:28.08px;}.cls-2{stroke-width:30px;}</style></defs><title>contact</title><path class="cls-1" d="M19.36,152c-3.1,10.78-12.1,52.51,3.82,84.38,0,0,29,82.83,111.32,151.15,0,0,73.31,67.69,119.16,79.23s62.62,21.71,96.36-5.13c0,0,25.15-28.72,26.24-49.46a17.05,17.05,0,0,0-8.38-11.6l-78-48.84s-10.91-6.13-18.7,4.48l-24.44,33.3s-7.89,8.08-20.29-.58S93.32,288.3,100.81,247.13c0,0,.35-2.31,1.4-2.58L138,218.82s7.41-6.94,3.19-16.46l-56.46-83.6s-6.18-8.13-21.31.92c0,0-29.15,14-39.36,24C22.73,144.94,19.87,150.19,19.36,152Z" transform="translate(0.03 -0.02)"/><path class="cls-2" d="M92.47,130.21V51a36,36,0,0,1,36-36h317a36,36,0,0,1,36,36V272.54a36,36,0,0,1-36,36H134.7" transform="translate(0.03 -0.02)"/><path class="cls-2" d="M102.13,31.33,261,150.33a40.74,40.74,0,0,0,49.15-.21L472,26.64" transform="translate(0.03 -0.02)"/></svg>